<svg width="16" height="15" viewBox="0 0 16 15" fill="none" xmlns="http://www.w3.org/2000/svg">
<path fill-rule="evenodd" clip-rule="evenodd" d="M5.4431 13.1746L14.5086 4.75671C15.1638 4.14833 15.1638 3.16339 14.5086 2.55578L13.3247 1.45571C12.6704 0.848098 11.6088 0.848098 10.9545 1.45571L1.88896 9.87355L1 14L5.4431 13.1753V13.1746ZM9.56698 3.84569L2.66061 10.2563L2.06825 13.0073L5.03004 12.4572L11.9364 6.04429L9.56615 3.84413L9.56698 3.84569ZM10.1593 3.29565L12.5288 5.49503L13.9171 4.2059C14.2438 3.90248 14.2438 3.41002 13.9171 3.10582L12.7324 2.00575C12.4056 1.70233 11.8744 1.70233 11.5468 2.00575L10.1585 3.29487L10.1593 3.29565Z" fill="#1E293B" stroke="#1E293B" stroke-width="0.5"/>
</svg>
