<svg width="17" height="10" viewBox="0 0 17 10" fill="none" xmlns="http://www.w3.org/2000/svg">
<path d="M8.5 7.5C9.84179 7.5 10.9286 6.38125 10.9286 5C10.9286 3.61875 9.84179 2.5 8.5 2.5C7.15943 2.5 6.07143 3.61875 6.07143 5C6.07143 6.38125 7.15943 7.5 8.5 7.5Z" fill="#1E293B"/>
<path fill-rule="evenodd" clip-rule="evenodd" d="M8.5 0C12.187 0 15.3897 2.02625 17 5C15.3897 7.97375 12.187 10 8.5 10C4.81304 10 1.61161 7.97375 0 5C1.61161 2.02625 4.81304 0 8.5 0ZM8.5 8.75C5.5535 8.75 2.96315 7.2575 1.48222 5C2.96315 2.7425 5.5535 1.25 8.5 1.25C11.4465 1.25 14.0369 2.7425 15.5191 5C14.0369 7.2575 11.4465 8.75 8.5 8.75Z" fill="#1E293B"/>
</svg>
